<?xml version="1.0" encoding="utf-8"?>
<!-- Generator: Adobe Illustrator 21.1.0, SVG Export Plug-In . SVG Version: 6.00 Build 0)  -->
<svg version="1.1" xmlns="http://www.w3.org/2000/svg" xmlns:xlink="http://www.w3.org/1999/xlink" x="0px" y="0px"
	 viewBox="0 0 695.9 121.8" style="enable-background:new 0 0 695.9 121.8;" xml:space="preserve">
<style type="text/css">
	.st0{display:none;}
	.st1{fill:none;}
	.st2{fill:#3779B2;}
	.st3{fill:#808080;}
</style>
<g id="Background_Plate" class="st0">
</g>
<g id="Layer_1">
	<rect x="-17.3" y="-30.7" class="st1" width="595.1" height="196.4"/>
	<g>
		<g>
			<path class="st2" d="M154.1,34.7h24.4c4.4,0,7.7,0.5,9.9,1.6c2.2,1.1,4,2.6,5.5,4.6c1.4,2,2.2,4.4,2.2,7.3
				c0,5.8-3.1,9.7-9.4,11.6c3.6,0.8,6.4,2.4,8.2,4.9c1.8,2.4,2.7,5.1,2.7,8c0,3.9-1.5,7.3-4.5,10.2c-3,2.9-7.8,4.3-14.5,4.3h-24.4
				V34.7z M166.3,44v11.5h9.3c3.4,0,5.6-0.7,6.4-2c0.9-1.3,1.3-2.6,1.3-3.9c0-1.3-0.4-2.5-1.1-3.4c-0.7-1-1.5-1.6-2.4-1.8
				c-0.9-0.2-2.6-0.4-5.1-0.4H166.3z M166.3,64.8v12.6h9.4c3.2,0,5.5-0.6,6.8-1.7c1.3-1.1,2-2.7,2-4.7c0-1.7-0.6-3.1-1.9-4.4
				c-1.3-1.2-3.4-1.8-6.4-1.8H166.3z"/>
			<path class="st2" d="M231,34.7l16.4,52.4h-13.2L231,76.3h-16.9l-3.3,10.8H200l16.8-52.4H231z M217,66.7h11.1l-5.5-18.4L217,66.7z
				"/>
			<path class="st2" d="M265.5,76.8h20.9v10.4h-33.3V34.7h12.4V76.8z"/>
			<path class="st2" d="M292.7,34.7h16c6.5,0,11.4,0.9,14.6,2.7c3.2,1.8,6.1,4.7,8.6,8.6c2.5,3.9,3.8,8.8,3.8,14.8
				c0,7.5-2.2,13.8-6.6,18.8c-4.4,5-10.5,7.5-18.3,7.5h-18V34.7z M304.8,44.3v32.9h5.1c4.5,0,7.8-1.7,10-5c2.2-3.3,3.3-7.3,3.3-11.8
				c0-3.2-0.6-6.1-1.9-8.8c-1.2-2.7-2.8-4.6-4.6-5.7c-1.8-1.1-4-1.6-6.6-1.6H304.8z"/>
			<path class="st3" d="M381.1,44.7h-25v10.8h19.6v9.9h-19.6v11.4h25v10.4h-37.4V34.7h37.4V44.7z"/>
			<path class="st3" d="M428.8,34.7v52.4h-10.5l-20.5-35.4c0,0.9,0,1.5,0.1,1.8c0.1,0.9,0.2,1.7,0.2,2.3v31.4h-9.6V34.7h13.2
				l17.8,30.9c-0.2-1.5-0.2-2.7-0.2-3.5V34.7H428.8z"/>
			<path class="st3" d="M480.2,59.1v28h-5.6c-0.4-2-1-4-1.7-6c-3.7,4.6-8.5,6.8-14.3,6.8c-6.8,0-12.2-2.4-16-7.3
				c-3.8-4.9-5.7-11.2-5.7-19c0-8.3,2-15.1,6.1-20.1c4.1-5.1,9.6-7.6,16.5-7.6c5.8,0,10.5,1.6,14.1,4.9c3.6,3.3,5.8,7.6,6.6,13.1
				l-11.7,1.5c-0.9-6.3-4-9.5-9-9.5c-3.3,0-5.8,1.5-7.5,4.5c-1.7,3-2.6,7.3-2.6,12.9c0,5.4,0.9,9.5,2.8,12.3
				c1.8,2.8,4.5,4.3,7.9,4.3c2.2,0,4.2-0.7,5.9-2.2c1.7-1.4,2.6-3.7,2.6-6.9h-9.9v-9.8H480.2z"/>
			<path class="st3" d="M502.1,34.7v52.4h-12.3V34.7H502.1z"/>
			<path class="st3" d="M553,34.7v52.4h-10.5L522,51.7c0,0.9,0.1,1.5,0.1,1.8c0.1,0.9,0.2,1.7,0.2,2.3v31.4h-9.6V34.7h13.2
				l17.8,30.9c-0.2-1.5-0.2-2.7-0.2-3.5V34.7H553z"/>
			<path class="st3" d="M600.9,44.7h-25v10.8h19.6v9.9H576v11.4h25v10.4h-37.4V34.7h37.4V44.7z"/>
			<path class="st3" d="M645.8,44.7h-25v10.8h19.6v9.9h-19.6v11.4h25v10.4h-37.4V34.7h37.4V44.7z"/>
			<path class="st3" d="M665.5,66.3v20.8h-12.4V34.7h23c4.3,0,7.7,0.5,10.2,1.5c2.6,1,4.7,2.8,6.4,5.4c1.7,2.6,2.5,5.6,2.5,8.8
				c0,6.3-3,10.8-9.1,13.5l9.7,23.2h-13.6l-8.1-20.8H665.5z M665.5,44v13.4h7.5c2.5,0,4.2-0.2,5.4-0.5c1.1-0.3,2.1-1.1,3-2.3
				c0.9-1.2,1.3-2.6,1.3-4.1c0-1.5-0.4-2.8-1.3-3.9s-1.8-1.9-2.8-2.1c-1-0.3-2.9-0.4-5.8-0.4H665.5z"/>
		</g>
	</g>
	<g>
		<g>
			<g>
				<g>
					<path class="st3" d="M40,65.1c-4.3,0-8.2,1.7-11,4.5H0v22.9h29c2.9,2.8,6.7,4.5,11,4.5c8.8,0,15.9-7.1,15.9-15.9
						C55.9,72.2,48.8,65.1,40,65.1z M40,89.5c-4.7,0-8.5-3.8-8.5-8.5c0-4.7,3.8-8.5,8.5-8.5c4.7,0,8.5,3.8,8.5,8.5
						C48.5,85.7,44.7,89.5,40,89.5z"/>
					<rect x="94.2" y="11.4" class="st3" width="39.4" height="17.8"/>
					<rect x="94.2" y="52.1" class="st3" width="39.4" height="17.8"/>
					<rect x="94.2" y="92.9" class="st3" width="39.4" height="17.8"/>
					<path class="st2" d="M69.1,103.8c-5.4,4.4-13.8,6.6-25.1,6.6H17.9v11.4h76.2V0H17v11.4h23.4c6.4,0,11.6,0.4,15.6,1.1
						c4,0.7,7.3,1.9,9.7,3.4c3.6,2.3,6.4,5.3,8.3,8.9C76,28.5,77,32.6,77,37.2c0,5.5-1.2,10.2-3.6,14c-2.4,3.8-6.1,7.1-11.2,9.7
						c5.1,2.2,8.9,5.1,11.3,8.7c2.4,3.7,3.7,8.2,3.7,13.8C77.2,92.6,74.5,99.4,69.1,103.8z"/>
					<path class="st3" d="M40,24.5c-4.3,0-8.2,1.7-11,4.5H0v22.9h29c2.9,2.8,6.7,4.5,11,4.5c8.8,0,15.9-7.1,15.9-15.9
						C55.9,31.6,48.8,24.5,40,24.5z M40,48.9c-4.7,0-8.5-3.8-8.5-8.5c0-4.7,3.8-8.5,8.5-8.5c4.7,0,8.5,3.8,8.5,8.5
						C48.5,45.1,44.7,48.9,40,48.9z"/>
				</g>
			</g>
		</g>
	</g>
</g>
<g id="Layer_2" class="st0">
</g>
</svg>
