<?xml version="1.0" encoding="UTF-8" standalone="no"?>
<svg
   xmlns:dc="http://purl.org/dc/elements/1.1/"
   xmlns:cc="http://creativecommons.org/ns#"
   xmlns:rdf="http://www.w3.org/1999/02/22-rdf-syntax-ns#"
   xmlns:svg="http://www.w3.org/2000/svg"
   xmlns="http://www.w3.org/2000/svg"
   xmlns:sodipodi="http://sodipodi.sourceforge.net/DTD/sodipodi-0.dtd"
   xmlns:inkscape="http://www.inkscape.org/namespaces/inkscape"
   width="52.035442mm"
   height="42.035542mm"
   viewBox="-27 -30 52.035442 42.035542"
   version="1.1"
   id="svg2"
   inkscape:version="0.91 r13725"
   sodipodi:docname="Holes.svg">
  <metadata
     id="metadata14">
    <rdf:RDF>
      <cc:Work
         rdf:about="">
        <dc:format>image/svg+xml</dc:format>
        <dc:type
           rdf:resource="http://purl.org/dc/dcmitype/StillImage" />
        <dc:title>svgOutput</dc:title>
      </cc:Work>
    </rdf:RDF>
  </metadata>
  <defs
     id="defs12" />
  <sodipodi:namedview
     pagecolor="#ffffff"
     bordercolor="#666666"
     borderopacity="1"
     objecttolerance="10"
     gridtolerance="10"
     guidetolerance="10"
     inkscape:pageopacity="0"
     inkscape:pageshadow="2"
     inkscape:window-width="1367"
     inkscape:window-height="978"
     id="namedview10"
     showgrid="false"
     fit-margin-top="0"
     fit-margin-left="0"
     fit-margin-right="0"
     fit-margin-bottom="0"
     showguides="true"
     inkscape:zoom="3.9320957"
     inkscape:cx="83.111706"
     inkscape:cy="68.683008"
     inkscape:window-x="537"
     inkscape:window-y="56"
     inkscape:window-maximized="0"
     inkscape:current-layer="layer2">
    <inkscape:grid
       type="xygrid"
       id="grid4162" />
  </sodipodi:namedview>
  <title
     id="title4">svgOutput</title>
  <desc
     id="desc6">made with tinkercad</desc>
  <g
     inkscape:groupmode="layer"
     id="layer1"
     inkscape:label="Base"
     transform="translate(-0.57626447,-0.77922162)"
     style="display:none">
    <path
       inkscape:connector-curvature="0"
       style="fill:none;stroke:#0000ff;stroke-width:0.01mm"
       d="m -23.80602,12.796913 -0.152,-0.0097 -0.254999,-0.01628 -0.257,-0.04997 -0.139,-0.02704 -0.373001,-0.124674 -0.004,-0.0014 -0.347999,-0.172 -0.310002,-0.213998 -0.102409,-0.097 -0.16259,-0.154 -0.097,-0.127369 -0.116999,-0.153631 -0.156,-0.304001 -0.08461,-0.285 -0.01039,-0.035 -0.032,-0.328998 0,-0.660002 0,-1.0239975 0,-1.024001 0,-1.0239983 0,-1.0240011 0,-1.024001 0,-1.0239983 0,-1.0240011 0,-1.024001 0,-1.02399833 0,-1.02400111 0,-1.02399926 0,-1.024 0,-1.0239999 0,-1.0240003 0,-1.0239996 0,-1.0240003 0,-1.0240002 0,-1.0239999 0,-1.0239993 0,-1.0240005 0,-1.024 0,-1.024001 0,-1.023999 0,-1.024 0,-1.024 0,-1.024001 0,-1.024 0,-1.023998 0,-1.024 0,-1.024001 0,-1.024 0,-1.024 0,-1.024 0,-1.024 0,-1.024 0,-1.024001 0,-0.275999 0.02295,-0.236 0.009,-0.093 0.095,-0.32 0.0508,-0.099 0.105198,-0.204916 0.116999,-0.153629 0.097,-0.127371 0.02745,-0.026 0.237549,-0.225 0.150002,-0.103548 0.16,-0.110453 0.147697,-0.073 0.200302,-0.099 0.004,-0.0013 0.373001,-0.124662 0.139,-0.02703 0.257,-0.04997 0.254999,-0.01629 0.152,-0.0097 0.872,0 2.048,0 4.095999,0 4.096001,0 4.0959991,0 4.096,0 4.09605398,-4.7e-5 4.09600102,0 4.095998,0 4.0960019,0 4.096001,0 4.095998,0 2.047999,0 0.872002,0 0.151999,0.0097 0.254999,0.01629 0.257001,0.04997 0.139,0.02703 0.373001,0.124662 0.004,0.0013 0.200302,0.099 0.147698,0.073 0.310001,0.214001 0.237549,0.225 0.02746,0.026 0.097,0.127371 0.116998,0.153629 0.105199,0.205 0.0508,0.099 0.095,0.32 0.009,0.093 0.023,0.236047 0,0.275999 0,1.024001 0,1.024 0,1.024 0,1.024 0,1.024 0,1.024 0,1.024001 0,1.024 0,1.023998 0,1.024 0,1.024001 0,1.024 0,1.024 0,1.024 0,1.024 0,1.024 0,1.0240015 0,1.0239989 0,1.024 0,1.0240002 0,1.0240002 0,1.0239997 0,1.0240002 0,1.024 0,1.0239999 0,1.02399932 0,1.02400105 0,1.02399833 0,1.0240011 0,1.0240011 0,1.0239982 0,1.0240011 0,1.0240011 0,1.0239982 0,1.0240011 0,1.0239978 0,0.660002 -0.032,0.328998 -0.01039,0.035 -0.08461,0.284999 -0.155998,0.304002 -0.117001,0.15363 -0.097,0.12737 -0.162591,0.154 -0.102407,0.097 -0.150004,0.103547 -0.159998,0.110451 -0.347999,0.172 -0.004,0.0014 -0.373002,0.124663 -0.139,0.02704 -0.257,0.04997 -0.254999,0.01634 -0.151999,0.0097 -0.872002,0 -2.047999,0 -4.095998,0 -4.096002,0 -4.0960009,0 -4.095998,0 -4.09600102,0 -4.09600098,0 -4.096,0 -4.0960001,0 -4.096001,0 -4.095999,0 -2.048,0 -0.872,0 m 23.40000108,-9.6940008 8.19199902,0 2.112002,0 0,-3.30599946 0,-16.38400074 0,-1.817999 -2.112002,0 -8.19199902,0 -8.19200098,0 -2.2080001,0 0,1.817999 0,16.38400074 0,3.30599946 2.2080001,0 8.19200098,0 M -16.790002,-12.402957 l -7.217998,0 0,4.0080003 0,3.4950001 7.217998,0 0.483002,0 0,-7.5030004 -0.483002,0 m 32.768004,0 -0.779001,0 0,7.5030004 0.779001,0 7.121999,0 0,-3.4950001 0,-4.0080003 -7.121999,0 z"
       id="path8" />
  </g>
  <g
     transform="translate(-0.57626447,-0.77922162)"
     inkscape:label="Base copy"
     id="g4158"
     inkscape:groupmode="layer"
     style="display:none">
    <path
       id="path4160"
       d="m -0.40600992,3.1030462 4.09599952,0 4.0959995,0 1.056001,0 1.0560015,0 0,-1.6529997 0,-1.65299976 0,-8.19200034 0,-8.1920004 0,-0.909 0,-0.908999 -1.0560015,0 -1.056001,0 -4.0959995,0 -4.09599952,0 -4.09600048,0 -4.0960005,0 -1.1040001,0 -1.104,0 0,0.908999 0,0.909 0,8.1920004 0,8.19200034 0,1.65299976 0,1.6529997 1.104,0 1.1040001,0 4.0960005,0 4.09600048,0 M -16.790002,-12.402957 l -3.608999,0 -3.608999,0 0,2.004 0,2.0040003 0,1.7475 0,1.7475001 3.608999,0 3.608999,0 0.241501,0 0.241501,0 0,-3.7515002 0,-3.7515002 -0.241501,0 -0.241501,0 m 32.768004,0 -0.389501,0 -0.3895,0 0,3.7515002 0,3.7515002 0.3895,0 0.389501,0 3.560999,0 3.561,0 0,-1.7475001 0,-1.7475 0,-2.0040003 0,-2.004 -3.561,0 z"
       style="fill:none;stroke:#000000;stroke-width:0.30000001;stroke-miterlimit:4;stroke-dasharray:none;stroke-opacity:1"
       inkscape:connector-curvature="0"
       sodipodi:nodetypes="ccccccccccccccccccccccccccccccccccccccccccccccccccccccccccc" />
  </g>
  <g
     inkscape:groupmode="layer"
     id="layer2"
     inkscape:label="Edge.Cuts">
    <path
       style="fill:none;fill-opacity:1;stroke:#e80000;stroke-width:0.30000001;stroke-miterlimit:4;stroke-dasharray:none;stroke-opacity:1"
       d="m -24.486307,-13.261686 1.922168,0 1.922167,0 1.922168,0 1.922167,0 0,1.873098 0,1.8730974 0,1.8730977 0,1.8730977 -1.922168,0 -1.922167,0 -1.922168,0 -1.922167,0 0,-1.8730977 0,-1.8730977 0,-1.8730974 z"
       id="rect4164"
       inkscape:connector-curvature="0"
       sodipodi:nodetypes="ccccccccccccccccc" />
    <path
       style="fill:none;fill-opacity:1;stroke:#e90000;stroke-width:0.30000001;stroke-miterlimit:4;stroke-dasharray:none;stroke-opacity:1"
       d="m 14.877306,-13.247745 1.922168,0 1.922167,0 1.922168,0 1.922168,0 0,1.873098 0,1.8730977 0,1.8730979 0,1.8730979 -1.922168,0 -1.922168,0 -1.922167,0 -1.922168,0 0,-1.8730979 0,-1.8730979 0,-1.8730977 z"
       id="rect4164-3"
       inkscape:connector-curvature="0"
       sodipodi:nodetypes="ccccccccccccccccc" />
    <path
       style="fill:none;fill-opacity:1;stroke:#e90000;stroke-width:0.30000001;stroke-miterlimit:4;stroke-dasharray:none;stroke-opacity:1"
       d="m -11.292826,-19.23144 5.177065,0 5.17706495,0 5.17706495,0 5.177065,0 0,5.367363 0,5.3673632 0,5.367363 0,5.3673631 -5.177065,0 -5.17706495,0 -5.17706495,0 -5.177065,0 0,-5.3673631 0,-5.367363 0,-5.3673632 z"
       id="rect4164-3-6"
       inkscape:connector-curvature="0"
       sodipodi:nodetypes="ccccccccccccccccc" />
  </g>
</svg>
