<?xml version="1.0" encoding="utf-8"?>
<!-- Generator: Adobe Illustrator 16.0.0, SVG Export Plug-In . SVG Version: 6.00 Build 0)  -->
<!DOCTYPE svg PUBLIC "-//W3C//DTD SVG 1.1//EN" "http://www.w3.org/Graphics/SVG/1.1/DTD/svg11.dtd">
<svg version="1.1" id="Capa_1" xmlns="http://www.w3.org/2000/svg" xmlns:xlink="http://www.w3.org/1999/xlink" x="0px" y="0px"
	 width="400px" height="400px" viewBox="0 0 400 400" enable-background="new 0 0 400 400" xml:space="preserve">
<g>
	<g>
		<path fill="#E30519" d="M107.847,364.295v-1.087h1.499c1.684,0,2.879-0.539,3.584-1.616c0.43-0.646,0.646-2.096,0.646-4.349
			v-25.737c0-2.487-0.275-4.045-0.823-4.672c-0.764-0.861-1.9-1.293-3.408-1.293h-1.499v-1.087h16.218
			c5.954,0,10.484,0.677,13.589,2.027c3.104,1.353,5.602,3.604,7.492,6.759c1.89,3.153,2.835,6.796,2.835,10.93
			c0,5.542-1.685,10.176-5.053,13.896c-3.781,4.153-9.54,6.229-17.276,6.229H107.847z M119.218,361.416
			c2.487,0.548,4.573,0.822,6.258,0.822c4.544,0,8.315-1.597,11.312-4.789c2.997-3.192,4.495-7.521,4.495-12.986
			c0-5.504-1.498-9.843-4.495-13.016c-2.997-3.173-6.846-4.76-11.546-4.76c-1.763,0-3.771,0.284-6.023,0.852V361.416z"/>
		<path fill="#E30519" d="M187.205,323.544l1.028,12.574h-1.028c-1.039-3.134-2.38-5.493-4.025-7.08
			c-2.37-2.292-5.417-3.438-9.138-3.438c-5.073,0-8.932,2.008-11.576,6.023c-2.214,3.389-3.32,7.424-3.32,12.104
			c0,3.801,0.734,7.268,2.204,10.4c1.469,3.135,3.394,5.432,5.773,6.891s4.823,2.188,7.331,2.188c1.469,0,2.889-0.186,4.26-0.559
			c1.371-0.372,2.693-0.92,3.966-1.646v-11.517c0-1.998-0.152-3.306-0.456-3.923c-0.304-0.616-0.774-1.087-1.41-1.41
			c-0.637-0.323-1.759-0.484-3.365-0.484v-1.117h15.425v1.117h-0.735c-1.528,0-2.576,0.51-3.144,1.527
			c-0.392,0.726-0.587,2.155-0.587,4.29v12.192c-2.253,1.215-4.477,2.106-6.67,2.674c-2.194,0.567-4.632,0.853-7.315,0.853
			c-7.698,0-13.544-2.468-17.541-7.404c-2.997-3.702-4.495-7.973-4.495-12.81c0-3.506,0.842-6.865,2.527-10.078
			c1.998-3.819,4.74-6.758,8.226-8.813c2.919-1.705,6.366-2.557,10.342-2.557c1.45,0,2.766,0.117,3.952,0.353
			c1.185,0.234,2.865,0.754,5.039,1.557c1.097,0.411,1.832,0.617,2.204,0.617c0.372,0,0.69-0.171,0.955-0.514
			c0.265-0.343,0.426-1.014,0.484-2.013H187.205z"/>
		<path fill="#E30519" d="M229.954,323.544l0.911,13.544h-0.911c-1.215-4.054-2.948-6.973-5.2-8.756
			c-2.253-1.781-4.955-2.674-8.109-2.674c-2.645,0-5.035,0.672-7.169,2.014c-2.135,1.342-3.815,3.481-5.039,6.42
			c-1.224,2.938-1.837,6.591-1.837,10.959c0,3.604,0.579,6.728,1.734,9.372c1.154,2.645,2.894,4.672,5.215,6.082
			c2.321,1.411,4.97,2.116,7.947,2.116c2.586,0,4.867-0.554,6.846-1.661c1.979-1.105,4.153-3.305,6.523-6.596l0.911,0.588
			c-1.998,3.545-4.33,6.141-6.993,7.786c-2.664,1.646-5.828,2.468-9.49,2.468c-6.602,0-11.713-2.449-15.336-7.346
			c-2.704-3.644-4.055-7.933-4.055-12.868c0-3.977,0.891-7.629,2.674-10.96c1.782-3.329,4.235-5.909,7.359-7.741
			c3.124-1.831,6.538-2.747,10.239-2.747c2.88,0,5.72,0.705,8.521,2.114c0.823,0.432,1.41,0.648,1.763,0.648
			c0.529,0,0.989-0.187,1.382-0.56c0.509-0.528,0.871-1.264,1.086-2.203H229.954z"/>
		<path fill="#E30519" d="M246.172,326.629v15.66h7.257c1.665,0,2.884-0.368,3.658-1.102c0.773-0.735,1.288-2.189,1.542-4.363h1.087
			v13.485h-1.087c-0.02-1.547-0.22-2.683-0.603-3.408c-0.382-0.725-0.91-1.268-1.586-1.631c-0.676-0.362-1.68-0.543-3.012-0.543
			h-7.257v12.516c0,2.019,0.127,3.35,0.382,3.996c0.195,0.49,0.606,0.911,1.233,1.264c0.862,0.47,1.764,0.705,2.704,0.705h1.439
			v1.087H234.83v-1.087h1.41c1.646,0,2.841-0.479,3.586-1.44c0.47-0.626,0.705-2.134,0.705-4.524v-25.737
			c0-2.017-0.128-3.35-0.383-3.996c-0.196-0.488-0.597-0.91-1.204-1.264c-0.843-0.47-1.744-0.705-2.704-0.705h-1.41v-1.087h29.646
			l0.382,8.756h-1.028c-0.51-1.86-1.103-3.227-1.777-4.099c-0.677-0.871-1.509-1.503-2.498-1.895
			c-0.988-0.392-2.522-0.588-4.598-0.588H246.172z"/>
		<path fill="#E30519" d="M302.142,324.454l0.442,9.344h-1.117c-0.216-1.646-0.51-2.821-0.882-3.525
			c-0.607-1.137-1.415-1.973-2.423-2.513c-1.01-0.538-2.337-0.809-3.981-0.809h-5.611v30.439c0,2.448,0.264,3.976,0.793,4.583
			c0.743,0.823,1.89,1.234,3.438,1.234h1.381v1.087h-16.895v-1.087h1.411c1.685,0,2.879-0.509,3.584-1.528
			c0.431-0.627,0.646-2.057,0.646-4.289v-30.439h-4.789c-1.861,0-3.183,0.138-3.967,0.412c-1.019,0.372-1.89,1.087-2.615,2.145
			c-0.725,1.058-1.155,2.488-1.292,4.29h-1.116l0.47-9.344H302.142z"/>
	</g>
</g>
<g>
	<path fill="#E30519" d="M190.285,101.685c-1.035,0-0.984,0-2.001,0.034c-2.325-10.398-5.87-16.947-11.196-17.947
		c-3.494,0.627-6.972,1.255-10.482,1.883c-4.682,4.682-5.055,12.23-4.038,20.711c-3.002,1.018-5.937,2.188-8.804,3.495
		c-6.124-8.736-11.925-13.418-17.217-12.298c-2.986,1.917-5.971,3.833-8.957,5.75c-2.562,6.141,0.034,13.316,4.275,20.797
		c-2.816,2.477-5.479,5.123-7.956,7.939c-9.143-5.513-16.335-7.464-20.729-4.292c-1.968,2.952-3.918,5.903-5.869,8.872
		c0.135,6.633,5.377,12.129,12.265,17.268c-1.188,2.563-2.256,5.175-3.207,7.855c-10.55-1.595-17.946-0.645-20.796,3.969
		c-0.678,3.478-1.357,6.955-2.019,10.45c2.647,6.038,9.534,9.108,17.795,11.212c-0.085,1.459-0.119,2.935-0.119,4.41
		c0,2.206,0.085,4.394,0.238,6.565c-10.296,2.781-16.675,6.615-17.438,11.976c0.78,3.461,1.561,6.921,2.341,10.382
		c4.852,4.461,12.366,4.512,20.746,3.138c1.119,2.969,2.408,5.887,3.833,8.702c-8.431,6.548-12.824,12.553-11.45,17.795
		c2.052,2.883,4.104,5.784,6.174,8.667c6.191,2.239,13.146-0.628,20.356-5.14c1.866,1.951,3.817,3.834,5.835,5.615
		c-5.412,9.211-7.277,16.42-4.055,20.78c2.969,1.916,5.954,3.851,8.939,5.767c6.582-0.203,11.993-5.445,17.014-12.314
		c2.612,1.204,5.293,2.289,8.024,3.239c-1.612,10.552-0.679,17.947,3.918,20.813c3.478,0.68,6.955,1.357,10.433,2.036
		c6.106-2.646,9.193-9.617,11.331-17.964c1.29,0.051,2.579,0.085,3.885,0.085c1.645,0,3.291-0.051,4.902-0.136
		c2.595,10.347,6.311,16.811,11.672,17.658c3.477-0.712,6.953-1.425,10.431-2.137c4.546-4.767,4.751-12.282,3.512-20.679
		c3.122-1.137,6.176-2.426,9.126-3.867c6.396,8.55,12.315,13.045,17.591,11.772c2.919-2.002,5.853-4.004,8.771-6.022
		c2.375-6.175-0.407-13.214-4.835-20.524c2.29-2.122,4.479-4.36,6.53-6.701c9.263,5.311,16.488,7.09,20.814,3.834
		c1.9-3.002,3.783-6.005,5.683-9.008c-0.271-6.514-5.462-11.807-12.264-16.708c1.339-2.935,2.526-5.921,3.562-8.991
		c10.178,1.578,17.32,0.662,20.169-3.816c0.713-3.478,1.425-6.938,2.155-10.415c-2.579-6.107-9.466-9.263-17.727-11.467
		c0.033-0.968,0.051-1.951,0.051-2.936l17.896,3.104l19.71-9.108l0.459-49.228l-19.187-17.2l-12.162,5.699l4.529-7.565l8.092-6.786
		l0.645,6.956l35.928-39.457l-26.462,18.931l1.373-5.004l-16.539,11.806l1.068-6.174l-15.622,12.349l-0.238-6.226l-22.391,20.339
		v-13.435l13.621-24.614l3.851,5.954l22.646-52.23l-20.287,26.582l-1.697-4.631l-17.794,29.771l-0.61-3.749l-3.816,3.02
		l-0.068-11.128h-6.785l-2.002,4.478l-0.915,18.846l-3.24,3.851l-4.004-1.238l-20.321,36.115l-2.46-13.587l3.069-6.701l2.155,4.241
		l12.095-29.703l4.461,4.241l6.243-33.587l4.309,3.393l9.262-52.314L244.109,46.91l-3.376-5.87l-7.311,30.636l-2.851-5.938
		l-10.161,31.179l-2.934-0.933l-6.157,8.804l-6.718-65.207l-15.318-0.152L190.285,101.685z M190.285,101.685L190.285,101.685z
		 M243.193,126.145l-1.238,16.132l-7.176-2.494l-8.736,3.952l5.377-11.941l3.614,3.324L243.193,126.145z M243.193,126.145
		L243.193,126.145z M282.293,122.447l1.086,22.137l-12.163,2.019l-1.153-7.803l-6.854,5.174l-1.849-0.934l-3.851-7.701l1.696-3.935
		l9.466-3.936l1.611,3.732L282.293,122.447z"/>
	<path fill="#FFFFFF" d="M193.813,191.164l73.841,1.238l-0.611-46.75l-17.845,11.06v-11.077l-15.386,10.466v-11.704l-18.473,11.094
		L201.192,43.518h-8.6L193.813,191.164z"/>
	<path fill="#FFFFFF" d="M286.907,188.026l11.518,1.611v-67.072l-11.518,5.428V188.026z"/>
	<path fill="#FFFFFF" d="M244.414,145.195l5.089-3.393h6.176l-3.088-60.186h-3.24L244.414,145.195z"/>
	<path fill="#FFFFFF" d="M259.359,129.164l18.777-18.065l-0.305,4.156l14.774-10.636l0.153,4.003l15.268-11.891v5.105l20.778-15.588
		l-25.716,26.546v-6.785l-17.574,14.045l0.475-6.497l-13.706,12.976l-0.152-5.394L259.359,129.164z"/>
	<path fill="#FFFFFF" d="M253.828,26.605l-8.616,39.066l-3.698-4.614l-7.379,31.992l-2.46-5.53l-11.688,32.925l-0.644-7.989
		l-11.061,20.594l8.905-32.299l2.799,5.531l10.145-33.841l3.375,10.466l8.007-36.929l2.171,8.634L253.828,26.605z"/>
	<path fill="#FFFFFF" d="M218.427,143.499l18.778-33.536v6.462l20.288-25.852l-0.306,7.074l19.405-31.993l0.611,6.446l15.063-20.593
		L275.66,83.805l-2.782-5.53l-15.385,29.838l-3.885-6.463l-18.269,28.311l-1.85-6.446L218.427,143.499z"/>
	<path fill="#FFFFFF" d="M202.125,227.177c12.383-3.613,21.391-11.568,25.547-25.852c14.792-1.831,16.013,6.769,12.942,16.607
		c-3.867,8.735-14.604,19.066-24.324,24.325C206.027,245.531,200.09,237.439,202.125,227.177z"/>
	<path fill="#FFFFFF" d="M202.38,244.124c13.842,13.384,54.824-25.105,42.51-41.849c8.922-0.34,12.314,5.666,10.161,18.082
		c-3.478,11.536-21.798,31.315-37.896,35.811C207.994,257.882,203.313,253.521,202.38,244.124z"/>
	<path fill="#FFFFFF" d="M157.479,202.614c3.341,12.452,11.094,21.629,25.309,26.091c1.527,14.808-7.107,15.859-16.896,12.586
		c-8.617-4.055-18.744-14.996-23.798-24.817C139.04,206.126,147.25,200.376,157.479,202.614z"/>
	<path fill="#FFFFFF" d="M181.057,155.101c-12.281,3.885-21.136,12.044-24.987,26.412c-14.69,2.172-16.115-6.412-13.282-16.336
		c3.681-8.787,14.164-19.372,23.782-24.833C176.749,136.849,182.872,144.804,181.057,155.101z"/>
	<path fill="#FFFFFF" d="M140.498,202.53c-13.638,13.57,23.969,55.334,40.949,43.375c0.17,8.922-5.92,12.195-18.269,9.771
		c-11.467-3.716-30.856-22.442-35.012-38.625C126.657,207.856,131.101,203.276,140.498,202.53z"/>
	<path fill="#FFFFFF" d="M180.429,138.172c-14.164-13.045-54.265,26.31-41.593,42.764c-8.922,0.561-12.417-5.377-10.551-17.828
		c3.206-11.62,21.102-31.789,37.082-36.641C174.509,124.567,179.276,128.808,180.429,138.172z"/>
	<path fill="#FFFFFF" d="M191.421,182.141c4.97,0,8.991,4.003,8.991,8.974c0,4.97-4.021,8.989-8.991,8.989
		c-4.461,0-8.176-3.257-8.871-7.548c-1.12-0.306-2.443-0.475-3.902-0.525c1.255-0.561,2.544-1.307,3.902-2.273
		C183.195,185.431,186.927,182.141,191.421,182.141z"/>
</g>
</svg>
